<svg width="60" height="54" viewBox="0 0 60 54" fill="none" xmlns="http://www.w3.org/2000/svg">
<path d="M14.499 16.1988C14.499 25.1452 21.7513 32.3975 30.6978 32.3975C39.6443 32.3975 46.8966 25.1452 46.8966 16.1988C46.8966 7.2523 39.6443 0 30.6978 0C21.7557 0.00981803 14.5094 7.25666 14.499 16.1988ZM30.6978 2.23416C38.4105 2.23416 44.6624 8.48611 44.6624 16.1988C44.6624 23.9114 38.4105 30.1634 30.6978 30.1634C22.9851 30.1634 16.7332 23.9114 16.7332 16.1988C16.7419 8.48993 22.989 2.24289 30.6978 2.23416Z" fill="#686868"/>
<path d="M52.4034 35.1515L43.6528 39.286C42.4446 37.0388 40.127 35.6086 37.5765 35.5366L29.4984 35.3146C28.2193 35.278 26.9642 34.9541 25.8269 34.3666L25.0049 33.9406C20.7962 31.7468 15.7797 31.7523 11.5754 33.9548L11.6267 32.0926C11.6436 31.4757 11.1576 30.9619 10.5407 30.945L1.6826 30.7012C1.06569 30.6843 0.552423 31.1703 0.535514 31.7872L0.00042817 51.2259C-0.0164807 51.8428 0.469515 52.3566 1.08642 52.3735L9.94452 52.6174H9.97507C10.5805 52.6174 11.0758 52.1357 11.0921 51.5308L11.1178 50.6008L13.419 49.3687C14.3223 48.8827 15.3783 48.767 16.365 49.0463L30.1071 52.9032C30.1311 52.9103 30.1551 52.9157 30.1796 52.9212C31.1729 53.129 32.1852 53.2332 33.1998 53.2326C35.3488 53.2337 37.4728 52.7706 39.4261 51.8739C39.4741 51.8521 39.5204 51.8265 39.5646 51.7975L59.4894 38.9097C59.9857 38.5884 60.1461 37.9366 59.8554 37.4217C58.3761 34.797 55.0952 33.7972 52.4034 35.1515ZM2.26459 50.171L2.73804 32.9653L9.36253 33.1475L8.88908 50.3537L2.26459 50.171ZM38.4197 49.8787C35.993 50.9739 33.2827 51.2761 30.6743 50.7432L16.9694 46.8961C15.4268 46.4603 13.7758 46.6409 12.3647 47.3996L11.1887 48.0296L11.5034 36.5899C15.2299 34.1113 20.0092 33.8566 23.9779 35.9244L24.7998 36.3504C26.2366 37.0922 27.8211 37.5013 29.4373 37.5482L37.5159 37.7702C39.785 37.8357 41.7121 39.4513 42.1724 41.6745L30.1393 41.3424C29.5224 41.3255 29.0091 41.812 28.9916 42.4284C28.9747 43.0453 29.4613 43.5591 30.0776 43.576L43.3571 43.9414H43.3882C43.9931 43.9409 44.4879 43.4593 44.5042 42.8549C44.5179 42.3694 44.4819 41.8834 44.3962 41.4056L53.3716 37.1648C53.3803 37.1609 53.389 37.1566 53.3978 37.1522C54.6709 36.508 56.2101 36.7235 57.2574 37.6928L38.4197 49.8787Z" fill="#686868"/>
<path d="M29.8804 18.2896C29.8804 17.5148 29.9744 16.8978 30.1626 16.4385C30.3507 15.9792 30.6938 15.5282 31.1919 15.0854C31.6955 14.6372 32.0303 14.2747 32.1963 13.998C32.3623 13.7158 32.4453 13.4198 32.4453 13.1099C32.4453 12.1746 32.0137 11.707 31.1504 11.707C30.7409 11.707 30.4116 11.8343 30.1626 12.0889C29.9191 12.3379 29.7918 12.6838 29.7808 13.1265H27.3735C27.3846 12.0695 27.7249 11.2422 28.3945 10.6445C29.0697 10.0469 29.9883 9.74805 31.1504 9.74805C32.3236 9.74805 33.2339 10.033 33.8813 10.603C34.5288 11.1675 34.8525 11.9671 34.8525 13.002C34.8525 13.4723 34.7474 13.9178 34.5371 14.3384C34.3268 14.7534 33.9588 15.2155 33.4331 15.7246L32.7607 16.3638C32.3402 16.7677 32.0994 17.2409 32.0386 17.7832L32.0054 18.2896H29.8804ZM29.6396 20.8379C29.6396 20.4671 29.7642 20.1628 30.0132 19.9248C30.2677 19.6813 30.5915 19.5596 30.9844 19.5596C31.3773 19.5596 31.6982 19.6813 31.9473 19.9248C32.2018 20.1628 32.3291 20.4671 32.3291 20.8379C32.3291 21.2031 32.2046 21.5047 31.9556 21.7427C31.7121 21.9806 31.3883 22.0996 30.9844 22.0996C30.5804 22.0996 30.2539 21.9806 30.0049 21.7427C29.7614 21.5047 29.6396 21.2031 29.6396 20.8379Z" fill="#686868"/>
</svg>
